<mxfile host="65bd71144e" scale="1" border="10">
    <diagram id="R1OjCu5fYYFUvinBPA5V" name="Page-1">
        <mxGraphModel dx="961" dy="790" grid="1" gridSize="10" guides="1" tooltips="1" connect="1" arrows="1" fold="1" page="1" pageScale="1" pageWidth="1100" pageHeight="850" background="#FFFFFF" math="0" shadow="0">
            <root>
                <mxCell id="0"/>
                <mxCell id="1" parent="0"/>
                <mxCell id="22" value="" style="ellipse;whiteSpace=wrap;html=1;fillColor=none;strokeColor=#000000;" vertex="1" parent="1">
                    <mxGeometry x="470" y="251.64999999999998" width="300" height="120" as="geometry"/>
                </mxCell>
                <mxCell id="23" value="" style="ellipse;whiteSpace=wrap;html=1;fillColor=none;strokeColor=#000000;rotation=-55;" vertex="1" parent="1">
                    <mxGeometry x="473" y="251.64999999999998" width="300" height="120" as="geometry"/>
                </mxCell>
                <mxCell id="24" value="" style="ellipse;whiteSpace=wrap;html=1;fillColor=none;strokeColor=#000000;rotation=-125;" vertex="1" parent="1">
                    <mxGeometry x="473" y="251.64999999999998" width="300" height="120" as="geometry"/>
                </mxCell>
                <mxCell id="19" value="" style="ellipse;whiteSpace=wrap;html=1;fillColor=none;strokeColor=#000000;" vertex="1" parent="1">
                    <mxGeometry x="74.66" y="251.64999999999998" width="300" height="120" as="geometry"/>
                </mxCell>
                <mxCell id="20" value="" style="ellipse;whiteSpace=wrap;html=1;fillColor=none;strokeColor=#000000;rotation=-55;" vertex="1" parent="1">
                    <mxGeometry x="77.66" y="251.64999999999998" width="300" height="120" as="geometry"/>
                </mxCell>
                <mxCell id="21" value="" style="ellipse;whiteSpace=wrap;html=1;fillColor=none;strokeColor=#000000;rotation=-125;" vertex="1" parent="1">
                    <mxGeometry x="77.66" y="251.64999999999998" width="300" height="120" as="geometry"/>
                </mxCell>
                <mxCell id="6" value="App" style="ellipse;whiteSpace=wrap;html=1;aspect=fixed;fillColor=#004C99;strokeColor=none;fontColor=#FFFFFF;" parent="1" vertex="1">
                    <mxGeometry x="96" y="178" width="70" height="70" as="geometry"/>
                </mxCell>
                <mxCell id="7" value="Service" style="ellipse;whiteSpace=wrap;html=1;aspect=fixed;fillColor=#004C99;strokeColor=none;fontColor=#FFFFFF;" parent="1" vertex="1">
                    <mxGeometry x="137" y="400" width="70" height="70" as="geometry"/>
                </mxCell>
                <mxCell id="8" value="Event" style="ellipse;whiteSpace=wrap;html=1;aspect=fixed;fillColor=#004C99;strokeColor=none;fontColor=#FFFFFF;" parent="1" vertex="1">
                    <mxGeometry x="328" y="278.65" width="70" height="70" as="geometry"/>
                </mxCell>
                <mxCell id="9" value="Data" style="ellipse;whiteSpace=wrap;html=1;aspect=fixed;fillColor=#CC0000;strokeColor=none;fontColor=#FFFFFF;fontSize=16;" parent="1" vertex="1">
                    <mxGeometry x="178.82999999999998" y="265.83" width="91.65" height="91.65" as="geometry"/>
                </mxCell>
                <mxCell id="13" value="App" style="ellipse;whiteSpace=wrap;html=1;aspect=fixed;fillColor=#004C99;strokeColor=none;fontColor=#FFFFFF;" parent="1" vertex="1">
                    <mxGeometry x="493" y="176" width="70" height="70" as="geometry"/>
                </mxCell>
                <mxCell id="14" value="Service" style="ellipse;whiteSpace=wrap;html=1;aspect=fixed;fillColor=#004C99;strokeColor=none;fontColor=#FFFFFF;" parent="1" vertex="1">
                    <mxGeometry x="532" y="400" width="70" height="70" as="geometry"/>
                </mxCell>
                <mxCell id="15" value="Data" style="ellipse;whiteSpace=wrap;html=1;aspect=fixed;fillColor=#004C99;strokeColor=none;fontColor=#FFFFFF;" parent="1" vertex="1">
                    <mxGeometry x="728" y="278.65" width="70" height="70" as="geometry"/>
                </mxCell>
                <mxCell id="16" value="&lt;font style=&quot;font-size: 16px&quot;&gt;Event&lt;/font&gt;" style="ellipse;whiteSpace=wrap;html=1;aspect=fixed;fillColor=#CC0000;strokeColor=none;fontColor=#FFFFFF;" parent="1" vertex="1">
                    <mxGeometry x="577.17" y="265.83" width="91.65" height="91.65" as="geometry"/>
                </mxCell>
            </root>
        </mxGraphModel>
    </diagram>
</mxfile>